<?xml version="1.0" standalone="no"?>
<!DOCTYPE svg PUBLIC "-//W3C//DTD SVG 20010904//EN"
 "http://www.w3.org/TR/2001/REC-SVG-20010904/DTD/svg10.dtd">
<svg version="1.0" xmlns="http://www.w3.org/2000/svg"
 width="225.000000pt" height="225.000000pt" viewBox="0 0 225.000000 225.000000"
 preserveAspectRatio="xMidYMid meet">

<g transform="translate(0.000000,225.000000) scale(0.100000,-0.100000)"
fill="#000000" stroke="none">
<path d="M1090 2176 c-117 -26 -192 -74 -221 -142 -33 -73 0 -140 94 -194 222
-126 600 -35 600 146 0 139 -251 240 -473 190z"/>
<path d="M854 1837 c8 -70 36 -101 128 -147 121 -61 215 -71 363 -38 133 29
225 113 225 205 l0 28 -20 -32 c-92 -152 -447 -187 -620 -62 -22 16 -50 44
-61 62 l-21 32 6 -48z"/>
<path d="M1561 1729 c-1 -23 -65 -86 -109 -108 -65 -33 -144 -51 -224 -51 -43
0 -78 -2 -78 -4 0 -2 7 -20 15 -40 15 -34 17 -36 65 -36 192 0 366 122 337
237 -4 13 -5 14 -6 2z"/>
<path d="M617 1644 c-206 -50 -282 -195 -157 -302 38 -33 142 -73 217 -84 149
-22 315 23 388 103 59 66 59 131 0 192 -88 91 -284 131 -448 91z"/>
<path d="M1561 1583 c0 -7 -17 -30 -36 -52 -57 -63 -188 -111 -304 -111 l-47
0 4 -41 4 -42 67 6 c88 8 188 40 240 78 48 34 85 104 78 147 -2 15 -5 21 -6
15z"/>
<path d="M1561 1443 c-2 -24 -65 -85 -112 -109 -65 -33 -151 -54 -219 -54
l-56 0 4 -41 4 -42 72 6 c148 13 253 66 294 149 14 28 22 58 19 75 -2 15 -5
23 -6 16z"/>
<path d="M400 1310 c0 -68 57 -128 160 -171 48 -21 72 -23 195 -24 133 0 143
1 200 28 108 51 155 101 155 165 l0 28 -49 -47 c-120 -116 -367 -140 -542 -52
-47 23 -77 46 -94 71 l-25 37 0 -35z"/>
<path d="M1093 1177 c-16 -34 -81 -81 -152 -108 -40 -15 -86 -23 -161 -26
-162 -8 -276 29 -349 112 l-31 36 0 -32 c0 -68 79 -143 185 -175 246 -75 554
43 523 202 -2 14 -5 13 -15 -9z"/>
<path d="M914 881 c-71 -32 -81 -113 -20 -170 32 -30 68 -39 232 -52 79 -7
144 -16 144 -21 0 -4 -32 -28 -70 -53 l-70 -45 -231 0 -230 0 -171 120 c-182
128 -245 157 -312 145 -50 -10 -86 -46 -86 -87 0 -31 16 -47 262 -253 l263
-220 431 0 c494 -1 439 10 583 -110 123 -102 104 -109 329 117 105 107 192
201 192 209 0 8 -42 49 -92 90 -51 40 -158 130 -238 198 -79 69 -156 131 -170
138 -19 10 -103 13 -365 13 -309 0 -344 -2 -381 -19z"/>
</g>
</svg>
