<?xml version="1.0" standalone="no"?>
<!DOCTYPE svg PUBLIC "-//W3C//DTD SVG 20010904//EN"
 "http://www.w3.org/TR/2001/REC-SVG-20010904/DTD/svg10.dtd">
<svg version="1.0" xmlns="http://www.w3.org/2000/svg"
 width="225.000000pt" height="225.000000pt" viewBox="0 0 225.000000 225.000000"
 preserveAspectRatio="xMidYMid meet">

<g transform="translate(0.000000,225.000000) scale(0.100000,-0.100000)"
fill="#000000" stroke="none">
<path d="M1760 2169 c-14 -25 -9 -61 8 -67 14 -4 42 55 35 75 -8 20 -31 16
-43 -8z"/>
<path d="M1575 2141 c-3 -6 -21 -54 -41 -107 -34 -96 -35 -124 -1 -111 16 6
90 204 81 218 -7 12 -31 12 -39 0z"/>
<path d="M116 2121 c-7 -10 -66 -392 -66 -423 0 -20 11 -27 80 -52 81 -29 110
-29 110 -1 0 8 4 15 9 15 5 0 71 -28 147 -62 105 -46 158 -64 217 -72 64 -9
76 -13 71 -26 -14 -30 -16 -91 -4 -105 16 -19 53 -19 91 1 17 8 33 13 36 10 3
-2 -3 -27 -12 -55 -14 -42 -14 -57 -5 -86 18 -55 -56 -24 802 -332 191 -69
273 -94 292 -89 55 14 71 43 166 306 86 240 91 257 80 293 -6 20 -21 44 -34
52 -12 8 -233 91 -491 184 l-468 169 -111 110 c-61 61 -123 114 -137 117 -14
3 -61 -3 -105 -14 -115 -28 -210 -41 -313 -41 -90 0 -91 0 -91 25 0 27 0 27
-163 65 -102 23 -94 22 -101 11z m201 -95 c1 -1 -21 -62 -48 -136 -27 -74 -48
-124 -45 -110 2 14 12 78 22 143 l18 118 25 -6 c14 -4 27 -7 28 -9z m644 -72
l78 -77 -32 -21 c-18 -12 -40 -38 -50 -59 -18 -37 -19 -37 -80 -37 -42 0 -66
5 -78 16 -21 19 -49 12 -49 -12 0 -9 17 -33 38 -54 31 -31 60 -45 182 -85 80
-26 151 -52 158 -58 18 -15 11 -57 -13 -72 -17 -11 -41 -7 -160 27 -110 31
-167 41 -266 48 l-127 8 -142 63 c-78 35 -144 69 -147 74 -2 6 16 65 39 130
l43 120 140 7 c126 5 237 22 320 47 55 17 66 12 146 -65z m604 -314 c274 -99
499 -180 502 -180 2 0 8 -11 13 -25 8 -21 -6 -68 -80 -273 -50 -138 -98 -253
-107 -260 -10 -7 -28 -10 -41 -7 -13 3 -240 84 -505 179 -374 135 -486 179
-500 198 -17 23 -17 26 14 116 25 71 37 92 51 92 14 0 17 -5 12 -24 -5 -20 0
-27 25 -40 44 -23 53 -46 41 -102 -8 -37 -8 -50 2 -59 16 -15 719 -275 742
-275 9 0 19 8 23 18 3 9 17 32 31 50 23 32 27 33 67 28 29 -5 45 -3 53 6 6 8
27 57 46 111 27 74 32 99 23 107 -7 6 -25 20 -40 31 -26 20 -28 26 -25 81 l3
60 -359 134 c-198 74 -369 134 -380 134 -14 0 -28 -13 -41 -37 -29 -53 -45
-60 -102 -45 -26 7 -52 17 -56 21 -4 4 2 33 13 64 20 53 40 76 66 77 6 0 235
-81 509 -180z m-648 64 c-3 -3 -12 -4 -19 -1 -8 3 -5 6 6 6 11 1 17 -2 13 -5z
m939 -322 c-1 -49 2 -56 33 -84 l34 -30 -18 -52 c-29 -83 -32 -86 -76 -86 -41
0 -80 -27 -105 -73 -10 -16 -33 -9 -295 88 l-284 106 4 45 c2 37 -1 50 -20 70
-12 13 -28 24 -36 24 -7 0 -13 8 -13 19 0 13 9 20 30 25 49 9 80 48 80 99 0
41 2 45 29 50 17 4 39 19 51 35 l21 29 283 -106 283 -105 -1 -54z m-1018 119
c17 -10 3 -21 -62 -50 -75 -32 -85 -25 -40 28 26 31 72 41 102 22z"/>
<path d="M803 1970 c-26 -11 -30 -38 -7 -47 24 -9 66 14 62 34 -4 21 -24 25
-55 13z"/>
<path d="M645 1940 c-27 -5 -73 -9 -102 -9 -65 -1 -83 -8 -83 -32 0 -17 8 -19
78 -18 42 1 106 6 142 13 55 9 65 14 65 31 0 23 -24 27 -100 15z"/>
<path d="M1370 1521 c-90 -48 -126 -160 -81 -249 41 -81 141 -120 226 -88 143
55 164 246 36 327 -55 35 -127 39 -181 10z m135 -45 c45 -19 75 -69 75 -125 0
-37 -6 -49 -39 -82 -35 -35 -44 -39 -91 -39 -46 0 -56 4 -85 33 -64 64 -54
152 24 204 39 27 68 29 116 9z"/>
<path d="M1429 1441 c-36 -36 -36 -54 -3 -88 29 -29 26 -41 -5 -21 -16 10 -23
10 -33 0 -9 -9 -8 -19 5 -47 19 -40 30 -42 75 -15 26 16 32 26 32 53 0 21 -8
41 -20 52 -11 10 -20 23 -20 28 0 6 8 3 18 -6 38 -35 62 -6 37 44 -20 37 -48
37 -86 0z"/>
<path d="M1726 2072 c-16 -25 -75 -205 -70 -213 3 -5 13 -9 22 -9 24 0 96 202
79 219 -13 13 -24 14 -31 3z"/>
<path d="M1879 2013 c-59 -153 -69 -188 -57 -200 7 -7 18 -9 24 -5 16 10 87
209 79 221 -12 20 -35 11 -46 -16z"/>
<path d="M1471 1859 c-16 -46 -14 -59 9 -59 21 0 40 34 40 71 0 32 -37 23 -49
-12z"/>
<path d="M1781 1749 c-16 -46 -14 -59 9 -59 21 0 40 34 40 71 0 32 -37 23 -49
-12z"/>
<path d="M344 1105 c-11 -29 11 -36 97 -33 76 3 84 5 84 23 0 18 -8 20 -88 23
-73 2 -88 0 -93 -13z"/>
<path d="M563 1109 c-18 -18 -3 -39 27 -39 34 0 46 15 30 35 -15 18 -42 19
-57 4z"/>
<path d="M385 980 c-9 -15 13 -40 35 -40 22 0 44 25 35 40 -3 5 -19 10 -35 10
-16 0 -32 -5 -35 -10z"/>
<path d="M484 975 c-11 -29 7 -35 105 -35 74 0 102 4 111 15 23 27 0 35 -106
35 -82 0 -106 -3 -110 -15z"/>
<path d="M784 825 c-81 -18 -129 -43 -206 -110 -71 -63 -58 -58 -238 -80 -74
-9 -138 -19 -142 -23 -10 -10 21 -534 31 -545 5 -4 92 4 196 18 103 14 189 25
191 25 2 0 4 8 4 18 1 15 165 129 212 145 9 3 110 -12 225 -34 243 -47 360
-50 445 -12 60 27 687 464 688 479 0 19 -40 64 -73 80 -17 9 -52 16 -78 16
-47 0 -127 -38 -355 -169 l-42 -24 -19 38 c-11 21 -39 52 -62 68 l-43 30 -186
5 c-182 6 -189 7 -259 37 -69 30 -163 54 -207 52 -12 0 -49 -7 -82 -14z m165
-46 c25 -5 77 -24 115 -41 69 -31 76 -32 251 -36 125 -3 188 -9 207 -18 29
-15 61 -56 72 -91 l7 -22 -153 5 c-170 6 -233 -2 -233 -30 0 -16 17 -18 213
-20 209 -3 214 -2 222 18 9 23 328 202 377 211 31 6 98 -23 93 -40 -2 -5 -140
-105 -307 -222 -200 -139 -321 -217 -355 -229 -77 -25 -162 -21 -374 20 -260
49 -260 49 -374 -24 -51 -33 -96 -60 -100 -60 -6 0 -120 368 -120 388 0 6 16
18 34 27 19 9 60 39 91 66 66 58 96 74 167 93 64 18 108 19 167 5z m-500 -251
c40 -124 112 -370 109 -372 -6 -5 -280 -38 -283 -34 -2 2 -9 103 -17 226 l-13
222 30 5 c69 11 82 12 117 14 36 1 36 1 57 -61z"/>
<path d="M2098 543 c-40 -27 -48 -50 -23 -59 13 -5 72 28 87 50 8 13 -1 36
-16 35 -6 0 -28 -12 -48 -26z"/>
<path d="M1987 465 c-39 -27 -51 -65 -19 -65 29 0 87 54 79 73 -9 23 -16 22
-60 -8z"/>
<path d="M1864 376 c-30 -26 -36 -37 -28 -46 15 -15 40 -7 79 24 25 20 28 26
16 40 -18 22 -22 21 -67 -18z"/>
<path d="M1758 302 c-38 -25 -51 -62 -23 -62 25 0 85 44 85 61 0 27 -23 28
-62 1z"/>
<path d="M1630 212 c-34 -29 -35 -52 -2 -52 25 0 87 54 78 68 -12 20 -40 14
-76 -16z"/>
</g>
</svg>
