<?xml version="1.0" standalone="no"?>
<!DOCTYPE svg PUBLIC "-//W3C//DTD SVG 20010904//EN"
 "http://www.w3.org/TR/2001/REC-SVG-20010904/DTD/svg10.dtd">
<svg version="1.0" xmlns="http://www.w3.org/2000/svg"
 width="225.000000pt" height="225.000000pt" viewBox="0 0 225.000000 225.000000"
 preserveAspectRatio="xMidYMid meet">

<g transform="translate(0.000000,225.000000) scale(0.100000,-0.100000)"
fill="#000000" stroke="none">
<path d="M1258 2035 c-98 -36 -160 -125 -161 -229 0 -64 25 -139 56 -165 10
-7 17 -17 17 -20 0 -4 -37 -13 -82 -20 -94 -14 -156 -37 -142 -51 5 -5 31 -3
64 7 64 17 205 21 305 7 76 -11 161 -50 238 -108 50 -38 67 -44 67 -23 0 15
-69 67 -142 107 l-49 27 46 28 c104 67 143 199 91 311 -53 113 -192 172 -308
129z m151 -21 c71 -21 125 -76 147 -149 55 -192 -149 -355 -325 -259 -145 79
-157 279 -21 376 65 47 119 56 199 32z"/>
<path d="M1401 1942 c-7 -14 -18 -18 -36 -14 -32 6 -65 -22 -65 -56 0 -13 14
-41 30 -62 32 -40 38 -68 18 -88 -19 -19 -48 -14 -84 13 -18 14 -35 21 -38 16
-4 -5 5 -19 20 -30 19 -15 24 -26 19 -41 -7 -23 10 -28 19 -5 3 10 19 15 44
15 21 0 43 5 50 12 21 21 13 68 -19 113 -17 24 -29 51 -27 61 5 27 52 30 87 4
17 -12 32 -16 36 -11 3 6 -6 18 -19 27 -21 13 -24 20 -16 34 6 12 7 21 1 25
-6 3 -15 -3 -20 -13z"/>
<path d="M586 1764 c-20 -20 -21 -14 15 -89 17 -36 33 -82 36 -104 5 -36 1
-45 -36 -87 -36 -41 -83 -126 -104 -186 -3 -10 -19 -20 -34 -23 -95 -19 -113
-47 -113 -173 0 -129 21 -164 109 -178 31 -5 45 -14 60 -38 30 -48 99 -109
179 -160 39 -25 72 -48 72 -50 0 -2 -9 -23 -20 -47 -11 -24 -20 -57 -20 -74 0
-35 29 -83 62 -101 33 -19 181 -18 218 1 33 17 60 61 60 97 0 23 0 23 149 23
l150 0 6 -34 c4 -20 21 -49 40 -68 33 -33 33 -33 132 -33 80 0 103 4 127 19
56 37 69 92 41 172 -16 43 -15 44 7 62 138 109 216 210 250 320 16 54 19 87
16 157 -4 77 -9 98 -41 164 -56 113 -151 208 -275 276 -32 18 -45 21 -54 12
-9 -9 -7 -13 8 -18 46 -17 154 -96 207 -152 100 -106 147 -241 128 -364 -17
-101 -62 -181 -160 -279 -47 -47 -98 -94 -113 -105 l-28 -19 20 -63 c33 -105
5 -150 -98 -159 -124 -11 -182 22 -182 104 0 44 -1 44 -28 38 -42 -9 -197 -9
-269 -1 l-63 8 0 -42 c0 -23 -5 -50 -11 -62 -32 -60 -213 -64 -254 -5 -22 31
-19 69 12 131 15 31 25 57 22 59 -2 2 -40 23 -83 48 -88 48 -175 128 -195 177
-12 29 -17 32 -58 32 -33 0 -50 6 -68 25 -23 22 -25 31 -25 120 0 53 4 105 10
115 10 19 59 40 95 40 17 0 27 15 54 80 22 55 49 98 84 136 l51 56 -12 56 c-7
31 -24 81 -38 110 -14 29 -23 56 -20 60 13 12 120 -18 200 -57 l81 -39 74 17
c41 9 76 22 79 29 5 15 -26 14 -93 -2 -47 -12 -53 -11 -105 15 -64 31 -182 69
-215 69 -13 0 -31 -7 -39 -16z"/>
<path d="M620 1345 c-18 -22 -8 -50 19 -50 32 0 49 28 32 49 -17 20 -35 20
-51 1z"/>
</g>
</svg>
