<?xml version="1.0" standalone="no"?>
<!DOCTYPE svg PUBLIC "-//W3C//DTD SVG 20010904//EN"
 "http://www.w3.org/TR/2001/REC-SVG-20010904/DTD/svg10.dtd">
<svg version="1.0" xmlns="http://www.w3.org/2000/svg"
 width="225.000000pt" height="225.000000pt" viewBox="0 0 225.000000 225.000000"
 preserveAspectRatio="xMidYMid meet">

<g transform="translate(0.000000,225.000000) scale(0.100000,-0.100000)"
fill="#000000" stroke="none">
<path d="M1053 2130 c-67 -40 -87 -109 -55 -183 15 -34 31 -51 56 -64 l36 -17
0 -103 c0 -88 3 -104 18 -112 11 -6 24 -6 35 0 14 8 17 26 17 112 l0 102 37
20 c71 39 92 146 40 211 -41 53 -127 69 -184 34z m126 -76 c12 -15 21 -38 21
-51 0 -30 -45 -73 -77 -73 -32 0 -73 42 -73 76 0 68 88 100 129 48z"/>
<path d="M980 1541 c-153 -49 -278 -163 -331 -301 -27 -69 -40 -197 -28 -275
28 -176 170 -341 349 -401 83 -28 245 -25 325 6 136 52 234 142 293 268 34 72
36 84 40 195 4 104 1 126 -18 180 -61 166 -192 289 -355 332 -79 20 -206 19
-275 -4z m287 -72 c154 -50 274 -195 294 -356 18 -142 -20 -262 -116 -362
-175 -183 -442 -189 -626 -15 -264 253 -123 694 241 753 61 10 132 3 207 -20z"/>
<path d="M1048 1281 c-63 -63 -78 -105 -58 -165 13 -41 59 -83 98 -92 15 -3
37 -7 50 -10 32 -6 62 -40 62 -68 0 -13 -9 -35 -21 -50 -40 -50 -122 -23 -131
44 -2 19 -10 26 -31 28 -18 2 -29 -2 -33 -13 -11 -29 15 -93 47 -117 17 -13
43 -35 57 -50 33 -35 41 -35 74 0 14 15 40 37 57 50 94 71 42 228 -83 246 -93
14 -119 112 -37 145 40 17 87 -7 99 -51 18 -69 82 -57 67 13 -8 39 -116 150
-143 148 -9 -1 -42 -27 -74 -58z"/>
<path d="M99 1469 c-47 -28 -69 -67 -69 -124 0 -61 24 -100 77 -126 53 -26
110 -19 154 18 33 28 25 30 173 -27 100 -38 110 -40 125 -26 27 28 1 48 -125
98 -118 46 -119 47 -125 83 -8 46 -35 83 -79 106 -45 24 -86 24 -131 -2z m118
-71 c48 -45 13 -128 -54 -128 -32 0 -73 42 -73 75 0 34 42 75 76 75 15 0 38
-10 51 -22z"/>
<path d="M2021 1472 c-44 -22 -72 -60 -80 -107 -6 -36 -7 -37 -125 -84 -127
-50 -152 -69 -125 -97 15 -14 25 -12 125 26 148 57 140 55 173 27 61 -51 146
-43 201 19 25 29 30 43 30 86 0 66 -27 111 -80 132 -52 20 -77 20 -119 -2z
m108 -69 c30 -26 37 -73 14 -101 -44 -53 -133 -26 -133 41 0 63 71 99 119 60z"/>
<path d="M729 533 c-25 -27 -64 -72 -88 -100 -43 -52 -45 -53 -99 -53 -69 0
-106 -22 -133 -78 -47 -96 20 -202 126 -202 102 0 172 107 132 201 -13 33 -13
37 7 61 139 169 146 179 136 199 -16 29 -33 23 -81 -28z m-144 -238 c48 -47
17 -125 -51 -125 -38 0 -74 38 -74 77 0 32 42 73 75 73 14 0 37 -11 50 -25z"/>
<path d="M1440 565 c-15 -18 -10 -27 87 -144 l71 -84 -14 -33 c-30 -71 -6
-145 58 -184 109 -66 248 43 208 164 -6 19 -27 49 -46 66 -30 26 -42 30 -92
30 l-57 0 -85 97 c-47 54 -93 99 -101 101 -9 2 -22 -4 -29 -13z m325 -270 c14
-13 25 -36 25 -50 0 -34 -42 -75 -76 -75 -37 0 -74 36 -74 72 0 36 40 78 75
78 14 0 37 -11 50 -25z"/>
</g>
</svg>
